<svg xmlns="http://www.w3.org/2000/svg" width="180" height="800" viewBox="0 0 180 800">
  <rect x="0" y="0" width="180" height="800" fill="#fff"/>
  <rect x="10" y="20" width="160" height="60" rx="5" ry="5" fill="#f0f0f0"/>
  <rect x="10" y="100" width="160" height="60" rx="5" ry="5" fill="#f0f0f0"/>
  <rect x="10" y="180" width="160" height="60" rx="5" ry="5" fill="#f0f0f0"/>
  <rect x="10" y="260" width="160" height="60" rx="5" ry="5" fill="#f0f0f0"/>
  <rect x="10" y="340" width="160" height="60" rx="5" ry="5" fill="#f0f0f0"/>
  <rect x="10" y="420" width="160" height="60" rx="5" ry="5" fill="#f0f0f0"/>
  <rect x="10" y="500" width="160" height="60" rx="5" ry="5" fill="#f0f0f0"/>
  <rect x="10" y="580" width="160" height="60" rx="5" ry="5" fill="#f0f0f0"/>
  <rect x="10" y="660" width="160" height="60" rx="5" ry="5" fill="#f0f0f0"/>
  <rect x="10" y="740" width="160" height="60" rx="5" ry="5" fill="#f0f0f0"/>
</svg>